<?xml version="1.0" encoding="UTF-8" standalone="no"?>
<!DOCTYPE svg PUBLIC "-//W3C//DTD SVG 1.1//EN" "http://www.w3.org/Graphics/SVG/1.1/DTD/svg11.dtd">
<!-- Created with Vectornator (http://vectornator.io/) -->
<svg height="100%" stroke-miterlimit="10" style="fill-rule:nonzero;clip-rule:evenodd;stroke-linecap:round;stroke-linejoin:round;" version="1.1" viewBox="0 0 841.995 595.35" width="100%" xml:space="preserve" xmlns="http://www.w3.org/2000/svg" xmlns:vectornator="http://vectornator.io" xmlns:xlink="http://www.w3.org/1999/xlink">
<defs/>
<g id="Calque-1" vectornator:layerName="Calque 1">
<g opacity="1">
<path d="M353.278 63.3185L353.278 69.3192L353.165 69.3192L353.165 104.09L370.775 104.09L370.775 108.633L390.235 108.633L390.235 104.09L408.742 104.09L408.742 108.633L426.633 108.633L426.633 106.894L445.027 106.894L445.027 104.09L463.815 104.09L463.815 103.137L464.6 103.137L464.6 63.8232L445.027 63.8232L445.027 66.5152L426.464 66.5152L426.464 69.3192L408.799 69.3192L408.799 65.0009L390.684 65.0009L390.684 69.3192L370.943 69.3192L370.943 63.3185L353.278 63.3185Z" fill="none" opacity="1" stroke="#1d1d1b" stroke-linecap="butt" stroke-linejoin="miter" stroke-width="2.75"/>
<path d="M359.017 175.999C359.017 174.276 360.437 172.88 362.189 172.88C363.941 172.88 365.362 174.276 365.362 175.999C365.362 177.721 363.941 179.118 362.189 179.118C360.437 179.118 359.017 177.721 359.017 175.999Z" fill="#000000" fill-rule="nonzero" opacity="1" stroke="#1d1d1b" stroke-dasharray="2.75,1.2" stroke-linecap="butt" stroke-linejoin="miter" stroke-width="2.75"/>
<path d="M377.74 182.371C377.74 180.648 379.16 179.252 380.912 179.252C382.665 179.252 384.085 180.648 384.085 182.371C384.085 184.094 382.665 185.49 380.912 185.49C379.16 185.49 377.74 184.094 377.74 182.371Z" fill="#000000" fill-rule="nonzero" opacity="1" stroke="#1d1d1b" stroke-dasharray="2.75,1.2" stroke-linecap="butt" stroke-linejoin="miter" stroke-width="2.75"/>
<path d="M396.336 188.898C396.336 187.176 397.757 185.779 399.509 185.779C401.261 185.779 402.681 187.176 402.681 188.898C402.681 190.621 401.261 192.017 399.509 192.017C397.757 192.017 396.336 190.621 396.336 188.898Z" fill="#000000" fill-rule="nonzero" opacity="1" stroke="#1d1d1b" stroke-dasharray="2.75,1.2" stroke-linecap="butt" stroke-linejoin="miter" stroke-width="2.75"/>
<path d="M412.945 194.368C412.945 192.646 414.365 191.249 416.117 191.249C417.87 191.249 419.29 192.646 419.29 194.368C419.29 196.091 417.87 197.487 416.117 197.487C414.365 197.487 412.945 196.091 412.945 194.368Z" fill="#000000" fill-rule="nonzero" opacity="1" stroke="#1d1d1b" stroke-dasharray="2.75,1.2" stroke-linecap="butt" stroke-linejoin="miter" stroke-width="2.75"/>
<path d="M431.221 201.15C431.221 199.427 432.642 198.03 434.394 198.03C436.146 198.03 437.566 199.427 437.566 201.15C437.566 202.872 436.146 204.269 434.394 204.269C432.642 204.269 431.221 202.872 431.221 201.15Z" fill="#000000" fill-rule="nonzero" opacity="1" stroke="#1d1d1b" stroke-dasharray="2.75,1.2" stroke-linecap="butt" stroke-linejoin="miter" stroke-width="2.75"/>
<path d="M450.041 207.009C450.041 205.287 451.461 203.89 453.213 203.89C454.965 203.89 456.386 205.287 456.386 207.009C456.386 208.732 454.965 210.128 453.213 210.128C451.461 210.128 450.041 208.732 450.041 207.009Z" fill="#000000" fill-rule="nonzero" opacity="1" stroke="#1d1d1b" stroke-dasharray="2.75,1.2" stroke-linecap="butt" stroke-linejoin="miter" stroke-width="2.75"/>
<path d="M449.645 284.76C449.645 283.038 451.066 281.641 452.818 281.641C454.57 281.641 455.991 283.038 455.991 284.76C455.991 286.483 454.57 287.879 452.818 287.879C451.066 287.879 449.645 286.483 449.645 284.76Z" fill="#000000" fill-rule="nonzero" opacity="1" stroke="#1d1d1b" stroke-dasharray="2.75,1.2" stroke-linecap="butt" stroke-linejoin="miter" stroke-width="2.75"/>
<path d="M429.846 284.699C429.846 282.976 431.267 281.58 433.019 281.58C434.771 281.58 436.192 282.976 436.192 284.699C436.192 286.421 434.771 287.818 433.019 287.818C431.267 287.818 429.846 286.421 429.846 284.699Z" fill="#000000" fill-rule="nonzero" opacity="1" stroke="#1d1d1b" stroke-dasharray="2.75,1.2" stroke-linecap="butt" stroke-linejoin="miter" stroke-width="2.75"/>
<path d="M412.057 284.591C412.057 282.868 413.478 281.472 415.23 281.472C416.982 281.472 418.402 282.868 418.402 284.591C418.402 286.314 416.982 287.71 415.23 287.71C413.478 287.71 412.057 286.314 412.057 284.591Z" fill="#000000" fill-rule="nonzero" opacity="1" stroke="#1d1d1b" stroke-dasharray="2.75,1.2" stroke-linecap="butt" stroke-linejoin="miter" stroke-width="2.75"/>
<path d="M394.863 285.071C394.863 283.348 396.284 281.952 398.036 281.952C399.788 281.952 401.209 283.348 401.209 285.071C401.209 286.794 399.788 288.19 398.036 288.19C396.284 288.19 394.863 286.794 394.863 285.071Z" fill="#000000" fill-rule="nonzero" opacity="1" stroke="#1d1d1b" stroke-dasharray="2.75,1.2" stroke-linecap="butt" stroke-linejoin="miter" stroke-width="2.75"/>
<path d="M376.443 285.115C376.443 283.392 377.863 281.996 379.615 281.996C381.367 281.996 382.788 283.392 382.788 285.115C382.788 286.837 381.367 288.234 379.615 288.234C377.863 288.234 376.443 286.837 376.443 285.115Z" fill="#000000" fill-rule="nonzero" opacity="1" stroke="#1d1d1b" stroke-dasharray="2.75,1.2" stroke-linecap="butt" stroke-linejoin="miter" stroke-width="2.75"/>
<path d="M354.706 285.121C354.706 283.398 356.126 282.002 357.878 282.002C359.63 282.002 361.051 283.398 361.051 285.121C361.051 286.843 359.63 288.24 357.878 288.24C356.126 288.24 354.706 286.843 354.706 285.121Z" fill="#000000" fill-rule="nonzero" opacity="1" stroke="#1d1d1b" stroke-dasharray="2.75,1.2" stroke-linecap="butt" stroke-linejoin="miter" stroke-width="2.75"/>
<path d="M358.963 459.809L454.161 459.864" fill="none" opacity="1" stroke="#1d1d1b" stroke-linecap="butt" stroke-linejoin="miter" stroke-width="2.75"/>
<path d="M394.554 51.0494L394.554 54.4704L382.104 54.4704L382.104 51.2737L376.047 51.2737L376.047 54.4704L362.812 54.4704L362.812 51.2177L356.755 51.2177L356.755 54.4704L335.892 54.4704L335.892 246.326L479.125 246.326L479.125 54.4704L455.908 54.4704L455.908 51.442L449.851 51.442L449.851 54.4704L436.952 54.4704L436.952 51.3298L430.895 51.3298L430.895 54.4704L418.894 54.4704L418.894 51.2177L412.837 51.2177L412.837 54.4704L400.667 54.4704L400.667 51.0494L394.554 51.0494Z" fill="none" opacity="1" stroke="#1d1d1b" stroke-linecap="butt" stroke-linejoin="miter" stroke-width="2.75"/>
<path d="M363.428 157.256C355.948 157.532 349.036 162.11 346.323 169.425C342.886 178.697 347.56 188.806 356.586 192.98C356.586 192.98 358.076 193.686 358.134 193.707L444.13 224.673L445.756 225.227C447.682 225.743 449.617 226.195 451.533 226.124C459.013 225.848 465.925 221.27 468.638 213.954C472.075 204.683 467.401 194.574 458.375 190.4C458.375 190.4 456.917 189.735 456.835 189.704C456.777 189.683 370.943 158.433 370.943 158.433L370.496 158.341C370.496 158.341 365.345 157.185 363.428 157.256Z" fill="none" opacity="1" stroke="#1d1d1b" stroke-linecap="butt" stroke-linejoin="miter" stroke-width="2.75"/>
<path d="M352.138 265.809C345.168 268.539 340.155 275.142 340.009 282.943C339.825 292.83 347.574 300.829 357.472 301.79C357.472 301.79 359.112 301.965 359.173 301.965L450.57 302.81L452.289 302.795C454.277 302.646 456.252 302.435 458.037 301.735C465.007 299.005 470.021 292.402 470.166 284.601C470.351 274.715 462.602 266.715 452.704 265.755C452.704 265.755 451.107 265.608 451.02 265.606C450.959 265.605 359.621 264.44 359.621 264.44L359.168 264.501C359.168 264.501 353.924 265.11 352.138 265.809Z" fill="none" opacity="1" stroke="#1d1d1b" stroke-linecap="butt" stroke-linejoin="miter" stroke-width="2.75"/>
<path d="M360.513 404.538C354.339 406.699 349.607 411.787 348.992 417.732C348.214 425.266 354.386 431.27 362.852 431.888C362.852 431.888 364.253 432.002 364.306 432.002L442.973 431.587L444.454 431.556C446.176 431.42 447.89 431.236 449.472 430.683C455.646 428.522 460.378 423.434 460.993 417.489C461.771 409.955 455.599 403.95 447.133 403.333C447.133 403.333 445.768 403.24 445.693 403.24C445.64 403.239 367.044 403.409 367.044 403.409L366.65 403.46C366.65 403.46 362.095 403.985 360.513 404.538Z" fill="none" opacity="1" stroke="#1d1d1b" stroke-linecap="butt" stroke-linejoin="miter" stroke-width="2.75"/>
<path d="M358.403 513.592L358.589 454.606L363.384 448.682L450.502 449.465L455.264 456.369L453.959 513.591" fill="none" opacity="1" stroke="#1d1d1b" stroke-linecap="butt" stroke-linejoin="miter" stroke-width="2.75"/>
<path d="M359.06 481.531L454.258 481.586" fill="none" opacity="1" stroke="#1d1d1b" stroke-linecap="butt" stroke-linejoin="miter" stroke-width="2.75"/>
<path d="M358.255 505.127L453.454 505.182" fill="none" opacity="1" stroke="#1d1d1b" stroke-linecap="butt" stroke-linejoin="miter" stroke-width="2.75"/>
<path d="M402.543 496.46C402.543 494.887 403.973 493.612 405.737 493.612C407.502 493.612 408.932 494.887 408.932 496.46C408.932 498.034 407.502 499.309 405.737 499.309C403.973 499.309 402.543 498.034 402.543 496.46Z" fill="#000000" fill-rule="nonzero" opacity="1" stroke="#1d1d1b" stroke-dasharray="2.75,1.2" stroke-linecap="butt" stroke-linejoin="miter" stroke-width="2.75"/>
<path d="M453.463 86.3478L447.408 508.828" fill="none" opacity="0.569135" stroke="#1d1d1b" stroke-dasharray="3.0,1.0" stroke-linecap="butt" stroke-linejoin="miter" stroke-width="2.75"/>
<path d="M433.04 86.717L432.132 509.239" fill="none" opacity="0.569135" stroke="#1d1d1b" stroke-dasharray="2.75,1.2" stroke-linecap="butt" stroke-linejoin="miter" stroke-width="2.75"/>
<path d="M416.436 87.122L415.528 509.644" fill="none" opacity="0.569135" stroke="#1d1d1b" stroke-dasharray="2.75,1.2" stroke-linecap="butt" stroke-linejoin="miter" stroke-width="2.75"/>
<path d="M398.938 84.5416L398.03 507.064" fill="none" opacity="0.569135" stroke="#1d1d1b" stroke-dasharray="2.75,1.2" stroke-linecap="butt" stroke-linejoin="miter" stroke-width="2.75"/>
<path d="M379.395 85.1869L381.753 507.704" fill="none" opacity="0.569135" stroke="#1d1d1b" stroke-dasharray="2.75,1.2" stroke-linecap="butt" stroke-linejoin="miter" stroke-width="2.75"/>
<path d="M364.658 86.5247L367.972 509.035" fill="none" opacity="0.569135" stroke="#1d1d1b" stroke-dasharray="2.75,1.2" stroke-linecap="butt" stroke-linejoin="miter" stroke-width="2.75"/>
</g>
</g>
</svg>
