<?xml version="1.0" encoding="UTF-8" standalone="no"?>
<!DOCTYPE svg PUBLIC "-//W3C//DTD SVG 1.1//EN" "http://www.w3.org/Graphics/SVG/1.1/DTD/svg11.dtd">
<!-- Created with Vectornator (http://vectornator.io/) -->
<svg height="100%" stroke-miterlimit="10" style="fill-rule:nonzero;clip-rule:evenodd;stroke-linecap:round;stroke-linejoin:round;" version="1.1" viewBox="0 0 841.995 595.35" width="100%" xml:space="preserve" xmlns="http://www.w3.org/2000/svg" xmlns:vectornator="http://vectornator.io" xmlns:xlink="http://www.w3.org/1999/xlink">
<defs/>
<g id="Calque-1" vectornator:layerName="Calque 1">
<path d="M366.159 243.383L477.288 243.383L477.288 255.041L366.159 255.041L366.159 243.383Z" fill="#000000" fill-rule="nonzero" opacity="0.506903" stroke="#000000" stroke-linecap="butt" stroke-linejoin="round" stroke-width="1"/>
<path d="M453.67 108.675C450.84 108.966 449.136 110.982 448.888 112.031C448.543 113.496 448.6 115.558 449.56 117.902C450.217 119.509 453.083 120.251 453.083 120.251L455.515 130.233L457.109 130.066L456.69 119.245C456.69 119.245 458.821 118.552 459.877 116.644C460.308 115.866 460.887 112.92 459.206 110.94C457.525 108.96 456.499 108.384 453.67 108.675ZM409.379 108.927C406.538 108.798 404.661 110.527 404.262 111.527C403.704 112.926 403.49 114.939 404.094 117.399C404.508 119.085 407.114 120.251 407.114 120.251L408.121 130.485L409.715 130.569L410.889 119.832C410.889 119.832 413.087 119.466 414.412 117.735C414.953 117.029 415.951 114.153 414.58 111.947C413.209 109.74 412.221 109.056 409.379 108.927ZM432.699 108.927C429.854 108.927 428.019 110.761 427.666 111.779C427.172 113.202 427.035 115.22 427.75 117.651C428.24 119.316 430.937 120.335 430.937 120.335L432.363 130.485L433.957 130.485L434.628 119.748C434.628 119.748 436.822 119.273 438.067 117.483C438.576 116.753 439.453 113.837 437.984 111.695C436.514 109.553 435.543 108.927 432.699 108.927ZM388.744 109.011C385.899 109.011 384.064 110.845 383.711 111.863C383.217 113.285 383.079 115.304 383.794 117.735C384.284 119.4 386.982 120.419 386.982 120.419L388.408 130.569L390.002 130.569L390.673 119.832C390.673 119.832 392.867 119.356 394.112 117.567C394.38 117.182 394.793 116.219 394.867 115.05C394.934 114.005 394.722 112.79 394.028 111.779C392.559 109.637 391.588 109.011 388.744 109.011ZM459.542 75.3732C468.135 112.328 481.126 142.094 476.99 147.933C475.821 149.582 370.476 148.386 369.618 147.262C362.771 138.292 376.06 111.573 384.717 75.3732M375.574 482.379L372.302 382.976L423.555 383.144L466.504 382.641L463.149 482.379" fill="#000000" fill-rule="nonzero" opacity="1" stroke="#1d1d1b" stroke-linecap="butt" stroke-linejoin="miter" stroke-width="1"/>
</g>
</svg>
