<?xml version="1.0" encoding="UTF-8" standalone="no"?>
<!DOCTYPE svg PUBLIC "-//W3C//DTD SVG 1.1//EN" "http://www.w3.org/Graphics/SVG/1.1/DTD/svg11.dtd">
<!-- Created with Vectornator (http://vectornator.io/) -->
<svg height="100%" stroke-miterlimit="10" style="fill-rule:nonzero;clip-rule:evenodd;stroke-linecap:round;stroke-linejoin:round;" version="1.1" viewBox="0 0 841.995 595.35" width="100%" xml:space="preserve" xmlns="http://www.w3.org/2000/svg" xmlns:vectornator="http://vectornator.io" xmlns:xlink="http://www.w3.org/1999/xlink">
<defs/>
<g id="Calque-1" vectornator:layerName="Calque 1">
<path d="M387.214 578.141L378.659 52.8964L439.942 52.6389L433.251 578.287" fill="none" opacity="1" stroke="#1d1d1b" stroke-linecap="butt" stroke-linejoin="miter" stroke-width="2.75"/>
<path d="M378.645 20.9196C374.602 22.3486 371.521 25.7332 371.149 29.697C370.678 34.7206 374.763 38.7374 380.325 39.1654C380.325 39.1654 381.246 39.2445 381.281 39.2445L432.94 39.12L433.912 39.1021C435.042 39.0146 436.167 38.8951 437.203 38.529C441.246 37.0999 444.327 33.7153 444.699 29.7515C445.171 24.7279 441.086 20.7111 435.523 20.2831C435.523 20.2831 434.626 20.2182 434.577 20.2179C434.542 20.2177 382.928 20.1788 382.928 20.1788L382.67 20.2121C382.67 20.2121 379.681 20.5535 378.645 20.9196Z" fill="none" opacity="1" stroke="#1d1d1b" stroke-linecap="butt" stroke-linejoin="miter" stroke-width="2.75"/>
<path d="M379.331 66.6896C398.596 66.6896 419.025 66.8509 438.144 66.8509" fill="none" opacity="0.776514" stroke="#1d1d1b" stroke-linecap="round" stroke-linejoin="miter" stroke-width="1.75"/>
<path d="M379.304 79.526C398.57 79.526 418.998 79.6872 438.118 79.6872" fill="none" opacity="0.776514" stroke="#1d1d1b" stroke-linecap="round" stroke-linejoin="miter" stroke-width="1.75"/>
<path d="M379.437 92.5839C398.702 92.5839 419.131 92.7451 438.25 92.7451" fill="none" opacity="0.776514" stroke="#1d1d1b" stroke-linecap="round" stroke-linejoin="miter" stroke-width="1.75"/>
<path d="M380.217 107.153C399.483 107.153 419.911 107.314 439.031 107.314" fill="none" opacity="0.776514" stroke="#1d1d1b" stroke-linecap="round" stroke-linejoin="miter" stroke-width="1.75"/>
<path d="M379.594 122.312C398.86 122.312 419.288 122.473 438.408 122.473" fill="none" opacity="0.776514" stroke="#1d1d1b" stroke-linecap="round" stroke-linejoin="miter" stroke-width="1.75"/>
<path d="M379.598 138.55C398.863 138.55 419.292 138.711 438.411 138.711" fill="none" opacity="0.776514" stroke="#1d1d1b" stroke-linecap="round" stroke-linejoin="miter" stroke-width="1.75"/>
<path d="M380.378 155.492C399.644 155.492 420.072 155.653 439.192 155.653" fill="none" opacity="0.776514" stroke="#1d1d1b" stroke-linecap="round" stroke-linejoin="miter" stroke-width="1.75"/>
<path d="M379.862 173.155C399.128 173.155 419.556 173.316 438.676 173.316" fill="none" opacity="0.776514" stroke="#1d1d1b" stroke-linecap="round" stroke-linejoin="miter" stroke-width="1.75"/>
<path d="M381.382 192.488C399.899 192.488 419.533 192.565 437.91 192.565" fill="none" opacity="0.776514" stroke="#1d1d1b" stroke-linecap="round" stroke-linejoin="miter" stroke-width="1.75"/>
<path d="M380.947 212.361C399.463 212.361 419.098 212.438 437.474 212.438" fill="none" opacity="0.776514" stroke="#1d1d1b" stroke-linecap="round" stroke-linejoin="miter" stroke-width="1.75"/>
<path d="M381.647 234.016C400.164 234.016 419.798 234.093 438.175 234.093" fill="none" opacity="0.776514" stroke="#1d1d1b" stroke-linecap="round" stroke-linejoin="miter" stroke-width="1.75"/>
<path d="M381.524 256.541C400.041 256.541 419.676 256.618 438.052 256.618" fill="none" opacity="0.776514" stroke="#1d1d1b" stroke-linecap="round" stroke-linejoin="miter" stroke-width="1.75"/>
<path d="M383.458 280.644C400.584 280.644 418.743 280.552 435.739 280.552" fill="none" opacity="0.776514" stroke="#1d1d1b" stroke-linecap="round" stroke-linejoin="miter" stroke-width="1.75"/>
<path d="M383.56 306.066C400.685 306.066 418.845 305.974 435.841 305.974" fill="none" opacity="0.776514" stroke="#1d1d1b" stroke-linecap="round" stroke-linejoin="miter" stroke-width="1.75"/>
<path d="M383.667 332.782C400.792 332.782 418.952 332.69 435.948 332.69" fill="none" opacity="0.776514" stroke="#1d1d1b" stroke-linecap="round" stroke-linejoin="miter" stroke-width="1.75"/>
<path d="M383.953 361.573C401.078 361.573 419.238 361.481 436.234 361.481" fill="none" opacity="0.776514" stroke="#1d1d1b" stroke-linecap="round" stroke-linejoin="miter" stroke-width="1.75"/>
<path d="M385.298 391.932C401.456 391.932 418.589 391.848 434.625 391.848" fill="none" opacity="0.776514" stroke="#1d1d1b" stroke-linecap="round" stroke-linejoin="miter" stroke-width="1.75"/>
<path d="M384.829 424.288C400.988 424.288 418.121 424.205 434.157 424.205" fill="none" opacity="0.776514" stroke="#1d1d1b" stroke-linecap="round" stroke-linejoin="miter" stroke-width="1.75"/>
<path d="M385.009 458.301C401.167 458.301 418.301 458.218 434.337 458.218" fill="none" opacity="0.776514" stroke="#1d1d1b" stroke-linecap="round" stroke-linejoin="miter" stroke-width="1.75"/>
<path d="M385.673 494.92C401.5 494.92 418.282 494.865 433.989 494.865" fill="none" opacity="0.776514" stroke="#1d1d1b" stroke-linecap="round" stroke-linejoin="miter" stroke-width="1.75"/>
<path d="M386.278 533.511C401.615 533.511 417.877 533.429 433.098 533.429" fill="none" opacity="0.776514" stroke="#1d1d1b" stroke-linecap="round" stroke-linejoin="miter" stroke-width="1.75"/>
<path d="M406.87 477.028C406.87 475.298 408.318 473.894 410.104 473.894C411.891 473.894 413.339 475.298 413.339 477.028C413.339 478.759 411.891 480.162 410.104 480.162C408.318 480.162 406.87 478.759 406.87 477.028Z" fill="#000000" fill-rule="nonzero" opacity="0.736997" stroke="none"/>
<path d="M406.289 408.108C406.289 406.377 407.737 404.974 409.523 404.974C411.31 404.974 412.758 406.377 412.758 408.108C412.758 409.839 411.31 411.242 409.523 411.242C407.737 411.242 406.289 409.839 406.289 408.108Z" fill="#000000" fill-rule="nonzero" opacity="0.736997" stroke="none"/>
<path d="M406.355 347.256C406.355 345.526 407.803 344.123 409.59 344.123C411.376 344.123 412.824 345.526 412.824 347.256C412.824 348.987 411.376 350.39 409.59 350.39C407.803 350.39 406.355 348.987 406.355 347.256Z" fill="#000000" fill-rule="nonzero" opacity="0.736997" stroke="none"/>
<path d="M406.298 293.352C406.298 291.621 407.746 290.218 409.533 290.218C411.319 290.218 412.767 291.621 412.767 293.352C412.767 295.083 411.319 296.486 409.533 296.486C407.746 296.486 406.298 295.083 406.298 293.352Z" fill="#000000" fill-rule="nonzero" opacity="0.736997" stroke="none"/>
<path d="M393.754 223.548C393.754 221.817 395.202 220.414 396.988 220.414C398.775 220.414 400.223 221.817 400.223 223.548C400.223 225.279 398.775 226.682 396.988 226.682C395.202 226.682 393.754 225.279 393.754 223.548Z" fill="#000000" fill-rule="nonzero" opacity="0.736997" stroke="none"/>
<path d="M405.975 164.503C405.975 162.773 407.423 161.37 409.209 161.37C410.996 161.37 412.444 162.773 412.444 164.503C412.444 166.234 410.996 167.637 409.209 167.637C407.423 167.637 405.975 166.234 405.975 164.503Z" fill="#000000" fill-rule="nonzero" opacity="0.736997" stroke="none"/>
<path d="M406 130.252C406 128.521 407.448 127.118 409.235 127.118C411.021 127.118 412.469 128.521 412.469 130.252C412.469 131.983 411.021 133.386 409.235 133.386C407.448 133.386 406 131.983 406 130.252Z" fill="#000000" fill-rule="nonzero" opacity="0.736997" stroke="none"/>
<path d="M406.027 100.193C406.027 98.4625 407.475 97.0594 409.262 97.0594C411.048 97.0594 412.496 98.4625 412.496 100.193C412.496 101.924 411.048 103.327 409.262 103.327C407.475 103.327 406.027 101.924 406.027 100.193Z" fill="#000000" fill-rule="nonzero" opacity="0.736997" stroke="none"/>
<path d="M406.08 73.1011C406.08 71.3703 407.528 69.9673 409.315 69.9673C411.101 69.9673 412.549 71.3703 412.549 73.1011C412.549 74.8318 411.101 76.2349 409.315 76.2349C407.528 76.2349 406.08 74.8318 406.08 73.1011Z" fill="#000000" fill-rule="nonzero" opacity="0.736997" stroke="none"/>
<path d="M418.123 223.336C418.123 221.605 419.571 220.202 421.357 220.202C423.144 220.202 424.592 221.605 424.592 223.336C424.592 225.067 423.144 226.47 421.357 226.47C419.571 226.47 418.123 225.067 418.123 223.336Z" fill="#000000" fill-rule="nonzero" opacity="0.736997" stroke="none"/>
</g>
</svg>
